Coordinates
version=1
nRows=19
nColumns=24
inDegrees=yes

Units are S.I. units (second, meters, Newtons, ...)
Angles are in degrees.

endheader
time	pelvis_tilt	pelvis_list	pelvis_rotation	pelvis_tx	pelvis_ty	pelvis_tz	hip_flexion_r	hip_adduction_r	hip_rotation_r	knee_angle_r	ankle_angle_r	subtalar_angle_r	mtp_angle_r	hip_flexion_l	hip_adduction_l	hip_rotation_l	knee_angle_l	ankle_angle_l	subtalar_angle_l	mtp_angle_l	lumbar_extension	lumbar_bending	lumbar_rotation
      4.22000000	     24.97416986	      0.56414913	      2.06895508	      0.67917577	      1.02266985	     -0.01113661	    -30.94440091	     -3.84774122	    -11.64103833	    -34.50115657	      2.16395442	     -6.45598862	     49.19172356	     -5.75233819	      0.50318129	     -2.38569592	    -19.49226925	      3.01007879	     -5.62383451	      9.17066098	    -40.41972310	     -3.29784165	     -0.27900008
      4.22500000	     24.93088259	      0.62322111	      1.90026088	      0.68455611	      1.02318578	     -0.01181062	    -30.13466656	     -4.26392437	    -11.65661975	    -35.99454101	      1.23260228	     -7.04536758	     50.81644140	     -6.02191145	      0.62386704	     -2.56013570	    -19.59641897	      3.60954087	     -5.30982838	      8.06254581	    -40.34058879	     -3.47591990	     -0.27698566
      4.23000000	     24.93181500	      0.74678765	      1.65253675	      0.68992672	      1.02380224	     -0.01249259	    -29.36074968	     -4.79490396	    -11.62988847	    -37.47788952	      0.55181991	     -7.28285776	     50.84575581	     -6.42320216	      0.85401786	     -2.72460552	    -19.53147166	      3.86075291	     -5.42453001	      8.00782523	    -40.30589691	     -3.74144506	     -0.27665070
      4.23500000	     24.85590462	      0.74745343	      1.40262675	      0.69516716	      1.02433387	     -0.01304733	    -28.46521259	     -5.16814105	    -11.44483628	    -38.92074567	     -0.06937846	     -7.72257732	     51.12023060	     -6.72064751	      0.93725291	     -2.93189072	    -19.49821917	      4.27635931	     -5.35504030	      7.77765058	    -40.19089583	     -3.90778822	     -0.17550012
      4.24000000	     24.86247870	      0.86345179	      1.18617379	      0.70046906	      1.02496411	     -0.01369084	    -27.70742507	     -5.65592696	    -11.43700560	    -40.28451305	     -0.48604353	     -8.04537361	     51.18183362	     -7.14506683	      1.14475003	     -3.10640258	    -19.39247737	      4.57696928	     -5.32243135	      7.72565725	    -40.16119900	     -4.14706064	     -0.19614567
      4.24500000	     24.83259292	      0.90323052	      0.93695791	      0.70567022	      1.02558431	     -0.01422406	    -26.88031738	     -6.05330905	    -11.28716337	    -41.60218532	     -0.80950400	     -8.40849940	     51.26123721	     -7.53216530	      1.27121525	     -3.31998667	    -19.27525193	      4.88989377	     -5.26627758	      7.65739441	    -40.09372472	     -4.33960845	     -0.13659684
      4.25000000	     24.78838964	      0.89321272	      0.67902396	      0.71085474	      1.02622957	     -0.01469879	    -26.03889494	     -6.37921494	    -11.07124915	    -42.84053350	     -1.01386116	     -8.77176095	     51.36991182	     -7.92595354	      1.34443414	     -3.53067337	    -19.11465448	      5.22460603	     -5.15395423	      7.55053348	    -40.00436939	     -4.49139687	     -0.02325889
      4.25500000	     24.80248765	      0.92483063	      0.46334211	      0.71601127	      1.02693178	     -0.01522905	    -25.28836406	     -6.73061287	    -10.95736006	    -44.00064719	     -1.13309950	     -9.06494773	     51.42754462	     -8.36748289	      1.45467852	     -3.74304070	    -18.97830363	      5.53309002	     -5.06633957	      7.48330965	    -39.98170915	     -4.64907702	     -0.00507103
      4.26000000	     24.79325724	      0.90752632	      0.21872807	      0.72112208	      1.02765350	     -0.01568125	    -24.49929785	     -7.01777166	    -10.75006362	    -45.09813461	     -1.14202427	     -9.35231822	     51.47619623	     -8.80070192	      1.51940365	     -3.96059015	    -18.80699096	      5.82309788	     -4.96767994	      7.40312122	    -39.93255921	     -4.77871880	      0.07869589
      4.26500000	     24.79358962	      0.86845447	     -0.01292630	      0.72621399	      1.02840799	     -0.01611483	    -23.73166603	     -7.26041446	    -10.54098296	    -46.11706446	     -1.06837728	     -9.59609762	     51.50599888	     -9.24896578	      1.55898013	     -4.16699037	    -18.62317992	      6.10535555	     -4.85375906	      7.31627119	    -39.89243794	     -4.87950415	      0.16496398
      4.27000000	     24.78264213	      0.76470613	     -0.24959318	      0.73126146	      1.02918460	     -0.01651704	    -22.94770606	     -7.41454104	    -10.27142768	    -47.06073398	     -0.95519736	     -9.79194549	     51.51287330	     -9.68525003	      1.52887744	     -4.39724771	    -18.44133792	      6.42103663	     -4.68028998	      7.10824390	    -39.83898565	     -4.92090914	      0.32844495
      4.27500000	     24.82021865	      0.74214373	     -0.44480217	      0.73633197	      1.03001012	     -0.01696149	    -22.25461785	     -7.63200866	    -10.11783839	    -47.92093268	     -0.75263773	     -9.98663302	     51.49830682	    -10.18350677	      1.58849100	     -4.54724611	    -18.23116954	      6.64723819	     -4.60609347	      7.01912644	    -39.84011467	     -5.00917543	      0.33872189
      4.28000000	     24.83432261	      0.65290436	     -0.65920963	      0.74135924	      1.03084216	     -0.01736567	    -21.52300512	     -7.76506880	     -9.88488623	    -48.72060457	     -0.52467027	    -10.11478934	     51.46060049	    -10.66026321	      1.58213106	     -4.72919726	    -18.01441005	      6.88260043	     -4.52126182	      6.91819265	    -39.81491721	     -5.04420195	      0.43935968
      4.28500000	     24.87586464	      0.55352654	     -0.85108706	      0.74636516	      1.03170793	     -0.01776410	    -20.83842601	     -7.86228664	     -9.67465403	    -49.43774338	     -0.27561073	    -10.21914425	     51.39796894	    -11.16969376	      1.56235650	     -4.89271985	    -17.78930298	      7.11441043	     -4.42201276	      6.81555602	    -39.82166657	     -5.05662326	      0.52841045
      4.29000000	     24.89456872	      0.42189645	     -1.04627885	      0.75135646	      1.03256951	     -0.01813967	    -20.12695308	     -7.90931431	     -9.43822495	    -50.09315870	     -0.03775384	    -10.26551165	     51.25260564	    -11.66394689	      1.50874243	     -5.07045817	    -17.54557616	      7.32919858	     -4.27020211	      6.63355038	    -39.80244854	     -5.03965464	      0.68000221
      4.29500000	     24.93567168	      0.30898576	     -1.19890371	      0.75632587	      1.03342821	     -0.01857105	    -19.46535122	     -7.94514051	     -9.25221836	    -50.67175833	      0.26104159	    -10.33834258	     51.13704855	    -12.17158323	      1.47576042	     -5.19930902	    -17.31618426	      7.54864694	     -4.22056236	      6.51280790	    -39.81354256	     -5.00741878	      0.71394959
      4.30000000	     24.98729561	      0.15250674	     -1.34944677	      0.76125591	      1.03432079	     -0.01892799	    -18.81480733	     -7.90700113	     -9.03848412	    -51.19676012	      0.59845643	    -10.26201345	     49.15503918	    -12.69736115	      1.38733514	     -5.35387418	    -17.08619541	      7.98686563	     -3.94203728	      4.61536610	    -39.83776940	     -4.94197562	      0.83153692
      4.30500000	     25.00525428	      0.02611782	     -1.47870718	      0.76616901	      1.03514621	     -0.01936371	    -18.13831991	     -7.89350125	     -8.86713567	    -51.65690620	      0.89766126	    -10.21937586	     49.18086798	    -13.18880300	      1.34349338	     -5.43613417	    -16.82676147	      8.14309835	     -3.92543836	      4.57767352	    -39.83078906	     -4.88117277	      0.88828235
      4.31000000	     25.02665204	     -0.11825547	     -1.59759433	      0.77104947	      1.03596620	     -0.01977022	    -17.47370732	     -7.83540660	     -8.69089469	    -52.04917600	      1.14686509	    -10.22258871	     49.14677431	    -13.68561033	      1.27493642	     -5.53254752	    -16.56293570	      8.31083036	     -3.85876048	      4.53250242	    -39.83126260	     -4.79898823	      0.95689113
